<svg xmlns="http://www.w3.org/2000/svg" viewBox="0 0 448 347.21"><defs><style>.cls-1{fill:#f57c1b;}</style></defs><g id="Layer_2" data-name="Layer 2"><g id="Layer_1-2" data-name="Layer 1"><path class="cls-1" d="M224.3,0A12,12,0,0,1,231,2.28l212.8,168a11.6,11.6,0,0,1,1.93,15.93c-3.62,4.67-11.3,5.42-15.93,1.75L224,25.56,18.15,188c-4.63,3.67-12.1,2.89-15.75-1.75S-.83,174,4.15,170.28l91-71.92V0H140V63L217,2.28A12.82,12.82,0,0,1,224.3,0ZM224,44.81l151.2,117.6v184.8H280v-112H168v112H72.75V162.41Z"/></g></g></svg>