<svg xmlns="http://www.w3.org/2000/svg" viewBox="0 0 560 560"><defs><style>.cls-1{fill:#f57c1b;}</style></defs><g id="Layer_2" data-name="Layer 2"><g id="Layer_1-2" data-name="Layer 1"><path class="cls-1" d="M280,0C125.36,0,0,125.36,0,280S125.36,560,280,560,560,434.64,560,280,434.64,0,280,0ZM106.94,381.55a5.86,5.86,0,0,0-5.71,7.22l3.51,15A211.75,211.75,0,0,1,67.16,283.38c0-117.77,95.8-213.57,213.57-213.57,54.32,0,103.72,20.68,141.44,54.22l12.28-11.54,12.48,53.16-52.28-15.77L405,140.17c-33.37-29-76.67-46.85-124.25-46.85-104.8,0-190.07,85.26-190.07,190.07a188.29,188.29,0,0,0,30.07,102.06l-12.09-3.65a5.83,5.83,0,0,0-1.7-.25Zm290.17-32.41c6.56,2.44,11.39,6.62,17.61,9.4-.53,2.41-1.79,4.07-2.93,5.87-5.94-2.86-11-6.66-17-9.39-.17-2.9,2-3.51,2.34-5.88Zm-2.34-130.32c5.27-3.54,11.61-6,16.43-10a13.26,13.26,0,0,1,3.52,5.86c-5.33,3.48-11.56,6.07-16.44,10a8.83,8.83,0,0,1-3.51-5.87ZM412.24,290v-4.94H432V290ZM351.31,176c-1.88-.84-3.27-2.18-5.27-2.93,2.44-6.56,6.6-11.4,9.39-17.61,2.54.41,3.6,2.27,5.87,2.94-3.1,6.08-6.76,11.64-10,17.6Zm10,239.52c-2.65.1-3.06,2.42-5.87,2.34-3-5.58-6.31-10.87-9.38-16.42,1.12-2,3.15-3.12,5.87-3.52,2.44,6.54,6.83,11.14,9.38,17.6ZM285,306a21,21,0,0,1-21-21,20.46,20.46,0,0,1,5-13.3V253.5L224.68,144.58a4.94,4.94,0,1,1,9.15-3.73l35.29,86.5V146.79a16.37,16.37,0,1,1,32.74,0V272.06c0,.19-.06.37-.06.56a20.59,20.59,0,0,1,4.2,12.43,21,21,0,0,1-21,21Zm3.71,112.41v19.76h-9.88V418.42ZM216.3,176c-3.57-5.62-7.18-11.22-10-17.6,1.28-1.26,3.48-1.61,4.68-2.94,4.28,5.13,7.27,11.55,10.57,17.61A20.93,20.93,0,0,0,216.3,176Zm5.27,224.85c-2.94,5.85-6.75,10.84-9.39,17-2.78-.12-4.22-1.62-5.86-2.93,2.77-6,6.44-11.17,9.4-17C218.12,398.39,219.78,399.67,221.57,400.81Zm-52.83-51.67c2.57.79,3.21,3.46,4.12,5.89-6.51,2.48-11.26,6.74-17.61,9.38a20.92,20.92,0,0,0-2.93-5.29c5.17-3.59,11.36-6.22,16.42-10ZM135.62,290v-4.94h19.76V290Zm34.3-65.31c-6-3.21-11.57-6.82-17.6-10,.72-2,2.08-3.38,2.93-5.27,6.71,2.28,11.44,6.55,17.61,9.39-.7,2.25-2.15,3.73-2.94,5.88ZM279.27,490.18C225,490.18,175.55,469.5,137.83,436L125.55,447.5l-12.48-53.16,52.27,15.77L155,419.82c33.37,29,76.67,46.85,124.25,46.85,104.8,0,190.07-85.26,190.07-190.07a188.29,188.29,0,0,0-30.07-102.06l12.09,3.65a5.82,5.82,0,0,0,1.69.25,5.88,5.88,0,0,0,5.72-7.22l-3.52-15a211.75,211.75,0,0,1,37.58,120.37c0,117.77-95.8,213.57-213.57,213.57Z"/></g></g></svg>