<svg xmlns="http://www.w3.org/2000/svg" viewBox="0 0 546.88 224.96"><defs><style>.cls-1{fill:#f57c1b;}</style></defs><g id="Layer_2" data-name="Layer 2"><g id="Layer_1-2" data-name="Layer 1"><path class="cls-1" d="M156,65.61C175.07,69.05,200.33,71,227.14,71s52.07-1.9,71.14-5.34c23.77-4.31,34.37-10.2,34.37-19.12s-10.6-14.82-34.37-19.12C279.21,23.92,254,22,227.14,22s-52.06,1.9-71.13,5.35c-23.77,4.3-34.37,10.2-34.37,19.12S132.24,61.3,156,65.61Zm71.13-30.47c51.49,0,82.29,6.8,90.73,11.35-8.44,4.54-39.24,11.34-90.73,11.34S144.85,51,136.41,46.49C144.85,41.94,175.65,35.14,227.14,35.14Z"/><path class="cls-1" d="M540.31,79.86h-86V46.49c0-8.38-7-15.44-21.32-21.58C421.42,20,405,15.55,384.29,11.8,342.26,4.2,286.45,0,227.15,0S112,4.2,70,11.8C49.26,15.55,32.88,20,21.32,24.91,7.37,30.88.41,37.73,0,45.81H0c0,.22,0,.45,0,.68v132c0,.23,0,.46,0,.68.37,8.08,7.33,14.92,21.28,20.89,11.56,5,27.94,9.36,48.69,13.12,42,7.61,97.85,11.8,157.15,11.8H540.32a6.57,6.57,0,0,0,6.56-6.57v-132a6.56,6.56,0,0,0-6.56-6.56Zm-468-55.15c41.29-7.47,96.27-11.59,154.81-11.59S340.67,17.24,382,24.71c48.34,8.75,59.22,18.91,59.22,21.78S430.3,59.52,382,68.27c-41.29,7.47-96.27,11.59-154.81,11.59S113.63,75.74,72.34,68.27c-7.42-1.35-14-2.72-19.7-4.1-.13,0-.26-.07-.4-.09C20.86,56.51,13.13,48.9,13.13,46.49c0-2.87,10.87-13,59.21-21.78ZM441.18,64V79.85H391.29c17.46-3.45,31.47-7.41,41.7-11.79h0A73.49,73.49,0,0,0,441.18,64Zm92.57,147.85H498V148.57a6.57,6.57,0,0,0-13.13,0v63.26H227.15c-58.53,0-113.52-4.12-154.81-11.59C24,191.49,13.13,181.33,13.13,178.46V64a72.64,72.64,0,0,0,8.19,4.08,165.66,165.66,0,0,0,23.11,7.59v64a6.76,6.76,0,0,0,6.36,6.84,6.58,6.58,0,0,0,6.77-6.57V78.74Q63.5,80,70,81.18q5.41,1,11.13,1.89v27.2a6.76,6.76,0,0,0,6.37,6.84,6.59,6.59,0,0,0,6.77-6.57V85q11.34,1.55,23.57,2.8V148h0a6.74,6.74,0,0,0,6.36,6.83,6.56,6.56,0,0,0,6.76-6.56V89q11.5,1,23.57,1.76V121.5a6.75,6.75,0,0,0,6.37,6.83,6.56,6.56,0,0,0,6.76-6.56V91.53q11.6.59,23.57.93v60.41a6.74,6.74,0,0,0,6.37,6.83,6.54,6.54,0,0,0,6.76-6.56V92.77q11.29.23,22.8.22h.77v27.07a6.75,6.75,0,0,0,6.36,6.83,6.56,6.56,0,0,0,6.77-6.56V93h23.57v63.77a6.76,6.76,0,0,0,6.36,6.84,6.58,6.58,0,0,0,6.77-6.57V93h23.57v27.07a6.74,6.74,0,0,0,6.36,6.83,6.56,6.56,0,0,0,6.76-6.56V93H338v63.77a6.75,6.75,0,0,0,6.36,6.84,6.56,6.56,0,0,0,6.76-6.57V93h23.57v27.07a6.74,6.74,0,0,0,6.36,6.83,6.56,6.56,0,0,0,6.76-6.56V93h23.58v63.77a6.75,6.75,0,0,0,6.36,6.84,6.58,6.58,0,0,0,6.76-6.57V93h23.57v27.07h0a6.75,6.75,0,0,0,6.36,6.84,6.58,6.58,0,0,0,6.77-6.56V93h23.57v23.88a6.57,6.57,0,0,0,13.13,0V93h35.81Z"/></g></g></svg>